<svg version="1.2" baseProfile="tiny-ps" xmlns="http://www.w3.org/2000/svg" viewBox="0 0 17 16" width="17" height="16">
	<title>Lista Produtos</title>
	<style>
		tspan { white-space:pre }
		.shp0 { fill: #ffffff } 
	</style>
	<g id="Lista Produtos">
		<g id="Group 35">
			<g id="Group 9">
				<g id="Group 3">
					<g id="Group 2">
						<g id="fi-rr-shopping-cart-add">
							<path id="Ellipse 4" class="shp0" d="M4.67 16C3.93 16 3.33 15.4 3.33 14.67C3.33 13.93 3.93 13.33 4.67 13.33C5.4 13.33 6 13.93 6 14.67C6 15.4 5.4 16 4.67 16Z" />
							<path id="Ellipse 5" class="shp0" d="M11.33 16C10.6 16 10 15.4 10 14.67C10 13.93 10.6 13.33 11.33 13.33C12.07 13.33 12.67 13.93 12.67 14.67C12.67 15.4 12.07 16 11.33 16Z" />
							<path id="Path 2" class="shp0" d="M15.33 2L14 2L14 0.67C14 0.3 13.7 0 13.33 0C12.97 0 12.67 0.3 12.67 0.67L12.67 2L11.33 2C10.97 2 10.67 2.3 10.67 2.67C10.67 3.03 10.97 3.33 11.33 3.33L12.67 3.33L12.67 4.67C12.67 5.03 12.97 5.33 13.33 5.33C13.7 5.33 14 5.03 14 4.67L14 3.33L15.33 3.33C15.7 3.33 16 3.03 16 2.67C16 2.3 15.7 2 15.33 2Z" />
							<path id="Path 3" class="shp0" d="M14.51 6.48C14.34 6.45 14.16 6.49 14.01 6.59C13.87 6.69 13.77 6.85 13.74 7.02C13.57 7.97 12.74 8.67 11.77 8.67L3.61 8.67L2.99 3.33L8.67 3.33C9.03 3.33 9.33 3.03 9.33 2.67C9.33 2.3 9.03 2 8.67 2L2.83 2L2.8 1.77C2.68 0.76 1.83 0 0.81 0L0.67 0C0.3 0 0 0.3 0 0.67C0 1.03 0.3 1.33 0.67 1.33L0.81 1.33C1.15 1.33 1.44 1.59 1.48 1.92L2.39 9.72C2.59 11.4 4.01 12.67 5.7 12.67L12.67 12.67C13.03 12.67 13.33 12.37 13.33 12C13.33 11.63 13.03 11.33 12.67 11.33L5.7 11.33C4.86 11.33 4.1 10.8 3.82 10L11.77 10C13.38 10 14.77 8.85 15.05 7.26C15.12 6.9 14.88 6.55 14.51 6.48Z" />
						</g>
					</g>
				</g>
			</g>
		</g>
	</g>
</svg>